<svg preserveAspectRatio="none" overflow="visible" style="display: block;" width="156" height="32" viewBox="0 0 156 32" fill="none" xmlns="http://www.w3.org/2000/svg">
<g id="Frame">
<path id="Vector" d="M7.09091 16L3.57683 19.584L0 16L3.57683 12.352L7.09091 16ZM15.6879 7.232L21.7747 13.44L25.3516 9.792L15.6879 0L6.08689 9.792L9.66372 13.44L15.6879 7.232ZM27.7989 12.352L24.2848 16L27.8616 19.648L31.3757 16L27.7989 12.352ZM15.6879 24.768L9.60097 18.56L6.02414 22.208L15.6879 32L25.2888 22.208L21.7747 18.56L15.6879 24.768ZM15.6879 19.584L19.2647 15.936L15.6879 12.352L12.111 16L15.6879 19.584ZM53.0877 19.968C53.0877 17.536 51.8327 16.384 49.8874 15.616C51.1424 14.912 52.1464 13.824 52.1464 11.84V11.776C52.1464 9.024 49.9501 7.232 46.4988 7.232H38.4666V24.768H46.6243C50.5149 24.768 53.0877 23.168 53.0877 19.968ZM48.3186 12.48C48.3186 13.824 47.2518 14.336 45.6203 14.336H42.1062V10.624H45.8713C47.4401 10.624 48.3186 11.264 48.3186 12.48ZM49.3226 19.456C49.3226 20.736 48.3186 21.376 46.687 21.376H42.1689V17.536H46.5615C48.4441 17.536 49.3226 18.24 49.3226 19.456ZM60.9944 24.768V7.232H57.1665V24.768H60.9944ZM81.3258 24.768V7.232H77.5607V18.048L69.5286 7.232H66.0145V24.768H69.7796V13.632L78.1255 24.768H81.3258ZM102.285 24.768L94.8801 7.104H91.3661L83.9614 24.768H87.852L89.4208 20.8H96.6999L98.2687 24.768H102.285ZM95.3821 17.408H90.8013L93.1231 11.712L95.3821 17.408ZM120.357 24.768V7.232H116.592V18.048L108.56 7.232H105.046V24.768H108.811V13.632L117.157 24.768H120.357ZM139.873 21.952L137.426 19.456C136.045 20.736 134.853 21.504 132.907 21.504C129.958 21.504 127.887 19.008 127.887 16V15.936C127.887 12.928 129.958 10.496 132.907 10.496C134.602 10.496 135.982 11.264 137.3 12.48L139.747 9.664C138.179 8.064 136.233 6.976 132.97 6.976C127.699 6.976 123.997 11.072 123.997 16.064V16C123.997 21.056 127.762 25.024 132.845 25.024C136.108 25.088 138.116 23.872 139.873 21.952ZM156 24.768V21.312H146.65V17.6H154.745V14.144H146.65V10.56H155.874V7.104H142.885V24.64L156 24.768Z" fill="#A2A2A2"/>
</g>
</svg>
